<svg width="346" height="345" viewBox="0 0 346 345" fill="none" xmlns="http://www.w3.org/2000/svg">
<path d="M172 0C208.256 0 243.585 11.4569 272.941 32.7345C302.297 54.012 324.179 84.0219 335.461 118.478C346.743 152.934 346.848 190.074 335.762 224.594C324.675 259.113 302.964 289.247 273.73 310.691L172 172V0Z" fill="#ED9B64"/>
<path d="M36.3147 276.408C64.0055 312.66 104.963 336.426 150.177 342.479C195.391 348.532 241.157 336.376 277.408 308.685L173 172L36.3147 276.408Z" fill="#7FC193"/>
<path d="M35.4808 275.25C13.125 245.387 1.08384 209.066 1.17282 171.762C1.26181 134.458 13.4761 98.1947 35.9742 68.4387L173.172 172.172L35.4808 275.25Z" fill="#FFF06D"/>
<path d="M172 0C144.871 3.2351e-07 118.127 6.41723 93.9516 18.7276C69.7764 31.0379 48.856 48.8921 32.8991 70.8321L172 172V0Z" fill="#8D95C3"/>
<circle cx="173" cy="172" r="74" fill="#1E1E1E"/>
<path d="M151.8 145.88C153.773 145.88 155.44 146.253 156.8 147C158.187 147.747 158.88 148.64 158.88 149.68C158.88 150.053 158.733 150.387 158.44 150.68C158.147 150.947 157.8 151.08 157.4 151.08C157 151.08 156.6 150.867 156.2 150.44C155.8 149.987 155.453 149.507 155.16 149C154.867 148.493 154.427 148.027 153.84 147.6C153.253 147.147 152.587 146.92 151.84 146.92C149.92 146.92 148.36 148.107 147.16 150.48C145.96 152.853 145.36 156.013 145.36 159.96C145.36 163.907 145.933 166.773 147.08 168.56C148.253 170.347 149.693 171.24 151.4 171.24C153.107 171.24 154.4 170.613 155.28 169.36C156.16 168.107 156.6 166.427 156.6 164.32C156.6 162.213 156.147 160.667 155.24 159.68C154.36 158.693 153.227 158.2 151.84 158.2C150.453 158.2 149.067 158.44 147.68 158.92L147.32 157.76C148.867 157.173 150.493 156.88 152.2 156.88C154.76 156.88 156.64 157.56 157.84 158.92C159.067 160.253 159.68 162.08 159.68 164.4C159.68 166.693 158.867 168.6 157.24 170.12C155.613 171.64 153.587 172.4 151.16 172.4C148.733 172.4 146.68 171.36 145 169.28C143.32 167.2 142.48 164.04 142.48 159.8C142.48 155.56 143.293 152.187 144.92 149.68C146.573 147.147 148.867 145.88 151.8 145.88ZM163.832 159.24C163.832 155.08 164.686 151.813 166.392 149.44C168.126 147.067 170.339 145.88 173.032 145.88C175.726 145.88 177.912 147.067 179.592 149.44C181.299 151.813 182.152 155.08 182.152 159.24C182.152 163.373 181.312 166.6 179.632 168.92C177.952 171.24 175.752 172.4 173.032 172.4C170.339 172.4 168.126 171.24 166.392 168.92C164.686 166.6 163.832 163.373 163.832 159.24ZM166.712 159.2C166.712 162.773 167.312 165.68 168.512 167.92C169.739 170.133 171.246 171.24 173.032 171.24C174.846 171.24 176.339 170.133 177.512 167.92C178.686 165.707 179.272 162.813 179.272 159.24C179.272 155.64 178.686 152.693 177.512 150.4C176.339 148.08 174.846 146.92 173.032 146.92C171.246 146.92 169.739 148.08 168.512 150.4C167.312 152.693 166.712 155.627 166.712 159.2ZM185.824 159.24C185.824 155.08 186.678 151.813 188.384 149.44C190.118 147.067 192.331 145.88 195.024 145.88C197.718 145.88 199.904 147.067 201.584 149.44C203.291 151.813 204.144 155.08 204.144 159.24C204.144 163.373 203.304 166.6 201.624 168.92C199.944 171.24 197.744 172.4 195.024 172.4C192.331 172.4 190.118 171.24 188.384 168.92C186.678 166.6 185.824 163.373 185.824 159.24ZM188.704 159.2C188.704 162.773 189.304 165.68 190.504 167.92C191.731 170.133 193.238 171.24 195.024 171.24C196.838 171.24 198.331 170.133 199.504 167.92C200.678 165.707 201.264 162.813 201.264 159.24C201.264 155.64 200.678 152.693 199.504 150.4C198.331 148.08 196.838 146.92 195.024 146.92C193.238 146.92 191.731 148.08 190.504 150.4C189.304 152.693 188.704 155.627 188.704 159.2Z" fill="white"/>
<path d="M131.3 184H142.82V186.88L142.62 186.84C142.62 185.213 141.007 184.4 137.78 184.4V193.48C137.78 195.453 137.893 196.653 138.12 197.08C138.2 197.24 138.34 197.38 138.54 197.5C138.74 197.62 138.953 197.693 139.18 197.72C139.407 197.747 139.72 197.76 140.12 197.76L140.16 198H134L134.04 197.76C134.44 197.76 134.753 197.753 134.98 197.74C135.22 197.713 135.433 197.633 135.62 197.5C135.82 197.367 135.96 197.227 136.04 197.08C136.133 196.933 136.213 196.673 136.28 196.3C136.347 195.847 136.38 194.907 136.38 193.48V184.4C133.153 184.4 131.54 185.213 131.54 186.84L131.3 186.88V184ZM141.82 193.28C141.82 191.88 142.22 190.707 143.02 189.76C143.82 188.813 144.906 188.34 146.28 188.34C147.653 188.34 148.76 188.813 149.6 189.76C150.44 190.707 150.86 191.88 150.86 193.28C150.86 194.68 150.453 195.853 149.64 196.8C148.84 197.733 147.753 198.2 146.38 198.2C145.006 198.2 143.9 197.727 143.06 196.78C142.233 195.833 141.82 194.667 141.82 193.28ZM144.12 196.52C144.653 197.373 145.406 197.8 146.38 197.8C147.353 197.8 148.086 197.38 148.58 196.54C149.086 195.7 149.34 194.62 149.34 193.3C149.34 191.967 149.073 190.873 148.54 190.02C148.006 189.167 147.253 188.74 146.28 188.74C145.32 188.74 144.586 189.167 144.08 190.02C143.586 190.86 143.34 191.94 143.34 193.26C143.34 194.58 143.6 195.667 144.12 196.52ZM155.184 188.54H157.644V188.98H155.184V196.6C155.184 196.88 155.251 197.107 155.384 197.28C155.517 197.44 155.691 197.52 155.904 197.52C156.384 197.52 156.951 197.38 157.604 197.1L157.644 197.32C156.711 197.907 155.884 198.2 155.164 198.2C154.697 198.2 154.351 198.087 154.124 197.86C153.897 197.633 153.784 197.24 153.784 196.68V188.98H152.584V188.54C153.304 188.54 153.804 188.34 154.084 187.94C154.377 187.527 154.597 186.92 154.744 186.12L155.184 186.08V188.54ZM166.291 191.54V193.56C166.291 195.04 166.337 196.013 166.431 196.48C166.524 196.933 166.751 197.16 167.111 197.16C167.337 197.16 167.637 197.067 168.011 196.88L168.111 197.08C168.004 197.16 167.864 197.26 167.691 197.38C167.517 197.487 167.164 197.633 166.631 197.82C166.097 198.007 165.584 198.1 165.091 198.1C164.957 197.54 164.891 196.647 164.891 195.42C164.597 196.247 164.211 196.92 163.731 197.44C163.264 197.947 162.611 198.2 161.771 198.2C160.931 198.2 160.264 197.98 159.771 197.54C159.291 197.087 159.051 196.473 159.051 195.7C159.051 193.553 160.997 192.473 164.891 192.46V191.74C164.891 190.78 164.751 190.047 164.471 189.54C164.191 189.033 163.671 188.78 162.911 188.78C162.484 188.78 162.137 188.887 161.871 189.1C161.604 189.313 161.424 189.547 161.331 189.8C161.104 190.493 160.764 190.84 160.311 190.84C159.871 190.84 159.651 190.593 159.651 190.1C159.651 189.593 159.984 189.173 160.651 188.84C161.317 188.507 162.124 188.34 163.071 188.34C164.017 188.34 164.791 188.613 165.391 189.16C165.991 189.693 166.291 190.487 166.291 191.54ZM160.571 195.78C160.571 196.3 160.697 196.733 160.951 197.08C161.204 197.413 161.604 197.58 162.151 197.58C162.711 197.58 163.217 197.313 163.671 196.78C164.124 196.233 164.431 195.633 164.591 194.98C164.764 194.313 164.864 193.627 164.891 192.92C163.411 192.933 162.317 193.207 161.611 193.74C160.917 194.273 160.571 194.953 160.571 195.78ZM172.277 183.28V194.52C172.277 196 172.364 196.913 172.537 197.26C172.711 197.593 173.191 197.76 173.977 197.76L174.017 198H169.117L169.157 197.76C169.957 197.76 170.444 197.593 170.617 197.26C170.791 196.927 170.877 196.013 170.877 194.52V186.88C170.877 185.4 170.797 184.507 170.637 184.2C170.584 184.107 170.484 184.013 170.337 183.92C170.191 183.827 170.031 183.773 169.857 183.76C169.697 183.747 169.464 183.74 169.157 183.74L169.117 183.52C170.117 183.36 171.171 183.28 172.277 183.28ZM188.653 198C187.907 198 187.147 197.433 186.373 196.3C186.053 195.82 185.733 195.34 185.413 194.86C184.627 193.687 183.913 193.053 183.273 192.96V194.7C183.273 196.087 183.36 196.947 183.533 197.28C183.707 197.6 184.18 197.76 184.953 197.76L184.993 198H180.113L180.153 197.76C180.953 197.76 181.44 197.593 181.613 197.26C181.787 196.913 181.873 196 181.873 194.52V186.86C181.873 185.82 181.84 185.107 181.773 184.72C181.707 184.32 181.6 184.08 181.453 184C181.16 183.84 180.727 183.76 180.153 183.76L180.113 183.52C181.113 183.373 182.167 183.3 183.273 183.3V192.62C184.06 192.567 184.8 192.167 185.493 191.42C186.187 190.66 186.533 189.98 186.533 189.38C186.533 189.153 186.473 188.993 186.353 188.9C186.233 188.807 186.033 188.76 185.753 188.76L185.713 188.54H189.973L189.933 188.76C189.067 188.76 188.433 188.96 188.033 189.36C187.633 189.76 187.213 190.2 186.773 190.68C186.333 191.16 186.013 191.507 185.813 191.72C185.28 192.267 184.727 192.613 184.153 192.76C184.753 192.84 185.3 193.067 185.793 193.44C186.287 193.813 186.7 194.24 187.033 194.72C187.367 195.187 187.693 195.653 188.013 196.12C188.787 197.213 189.653 197.76 190.613 197.76L190.653 198H188.653ZM195.143 198.2C193.969 198.2 192.963 197.767 192.123 196.9C191.283 196.033 190.863 194.86 190.863 193.38C190.863 191.887 191.243 190.673 192.003 189.74C192.776 188.807 193.869 188.34 195.283 188.34C196.163 188.34 196.929 188.487 197.583 188.78C198.236 189.06 198.563 189.453 198.563 189.96C198.563 190.413 198.316 190.64 197.823 190.64C197.569 190.64 197.356 190.54 197.183 190.34C197.023 190.14 196.896 189.927 196.803 189.7C196.723 189.46 196.556 189.24 196.303 189.04C196.049 188.84 195.716 188.74 195.303 188.74C194.343 188.74 193.616 189.14 193.123 189.94C192.629 190.74 192.383 191.84 192.383 193.24C192.383 194.627 192.676 195.707 193.263 196.48C193.849 197.24 194.576 197.62 195.443 197.62C196.763 197.62 197.703 197.087 198.263 196.02L198.563 196.18C197.883 197.527 196.743 198.2 195.143 198.2ZM207.306 191.54V193.56C207.306 195.04 207.353 196.013 207.446 196.48C207.54 196.933 207.766 197.16 208.126 197.16C208.353 197.16 208.653 197.067 209.026 196.88L209.126 197.08C209.02 197.16 208.88 197.26 208.706 197.38C208.533 197.487 208.18 197.633 207.646 197.82C207.113 198.007 206.6 198.1 206.106 198.1C205.973 197.54 205.906 196.647 205.906 195.42C205.613 196.247 205.226 196.92 204.746 197.44C204.28 197.947 203.626 198.2 202.786 198.2C201.946 198.2 201.28 197.98 200.786 197.54C200.306 197.087 200.066 196.473 200.066 195.7C200.066 193.553 202.013 192.473 205.906 192.46V191.74C205.906 190.78 205.766 190.047 205.486 189.54C205.206 189.033 204.686 188.78 203.926 188.78C203.5 188.78 203.153 188.887 202.886 189.1C202.62 189.313 202.44 189.547 202.346 189.8C202.12 190.493 201.78 190.84 201.326 190.84C200.886 190.84 200.666 190.593 200.666 190.1C200.666 189.593 201 189.173 201.666 188.84C202.333 188.507 203.14 188.34 204.086 188.34C205.033 188.34 205.806 188.613 206.406 189.16C207.006 189.693 207.306 190.487 207.306 191.54ZM201.586 195.78C201.586 196.3 201.713 196.733 201.966 197.08C202.22 197.413 202.62 197.58 203.166 197.58C203.726 197.58 204.233 197.313 204.686 196.78C205.14 196.233 205.446 195.633 205.606 194.98C205.78 194.313 205.88 193.627 205.906 192.92C204.426 192.933 203.333 193.207 202.626 193.74C201.933 194.273 201.586 194.953 201.586 195.78ZM213.293 183.28V194.52C213.293 196 213.379 196.913 213.553 197.26C213.726 197.593 214.206 197.76 214.993 197.76L215.033 198H210.133L210.173 197.76C210.973 197.76 211.459 197.593 211.633 197.26C211.806 196.927 211.893 196.013 211.893 194.52V186.88C211.893 185.4 211.813 184.507 211.653 184.2C211.599 184.107 211.499 184.013 211.353 183.92C211.206 183.827 211.046 183.773 210.873 183.76C210.713 183.747 210.479 183.74 210.173 183.74L210.133 183.52C211.133 183.36 212.186 183.28 213.293 183.28Z" fill="white"/>
</svg>
